<svg width="422" height="492" viewBox="0 0 422 492" fill="none" xmlns="http://www.w3.org/2000/svg">
<path d="M388.244 425.645L247.36 407.54C221.727 404.246 196.974 396.015 174.473 383.302L145.165 366.744C80.2371 330.062 44.4104 257.35 54.8845 183.515V183.515C56.3883 172.915 58.8286 162.468 62.1767 152.299L110.997 4.01027" stroke="#A4D144" stroke-width="3" stroke-dasharray="30 30"/>
<path d="M35.4757 74.8437C35.8735 74.91 36.2774 75.0566 36.6302 75.294C37.4202 75.8224 37.9544 76.6853 38.097 77.6814L38.4974 80.3675C38.6795 81.5885 38.1294 82.9852 37.1991 83.7233L32.4117 87.4506C32.3485 87.4996 32.2432 87.7004 32.2282 87.7971L31.4887 92.5755L40.3241 90.1375C41.505 89.8182 42.6172 90.0629 43.3742 90.8041C44.1313 91.5454 44.4699 92.7131 44.2753 93.9705L43.8891 96.4661C43.5957 98.362 42.0155 100.183 40.3014 100.592L29.8181 103.49L28.9678 108.984C28.6056 111.325 26.6524 113.758 24.5318 114.516C23.5137 114.862 22.4287 114.682 21.5843 114.025C19.781 112.613 18.6572 109.688 19.0195 107.347L19.8698 101.853L10.7335 95.6878C9.23792 94.6846 8.3137 92.5066 8.61011 90.5914L8.99634 88.0958C9.19395 86.819 9.84685 85.8362 10.8076 85.3811C11.7684 84.9259 12.8804 85.0515 13.9086 85.7188L21.5644 90.903L22.3039 86.1246C22.3159 86.0473 22.2735 85.8418 22.2282 85.7747L18.7911 80.658C18.1272 79.6743 18.0322 78.1304 18.5705 77.0493L19.7614 74.6281C20.2155 73.7314 20.9832 73.0853 21.9081 72.8622C22.8148 72.6362 23.7491 72.8315 24.497 73.3926C24.5784 73.4657 24.6598 73.5388 24.7383 73.6312L28.3647 78.1246C28.4884 78.2841 28.7807 78.3129 28.9252 78.2179L33.7253 75.1277C33.8096 75.0624 33.909 75.0194 34.0054 74.9958C34.4813 74.7972 34.9875 74.7624 35.4757 74.8437ZM30.4371 95.6549C30.0212 95.5856 29.6414 95.4033 29.3367 95.0946C28.7727 94.5442 28.5278 93.7295 28.6655 92.8396L29.5188 87.3261C29.6476 86.4942 30.18 85.5708 30.8123 85.0808L35.5997 81.3535C35.687 81.2688 35.8042 80.9906 35.786 80.8685L35.3886 78.1631C35.3643 77.9606 35.2497 77.8621 35.1833 77.8114C35.1321 77.783 35.0477 77.7293 34.9332 77.7499L30.3168 80.7317C29.016 81.5867 27.2258 81.2886 26.2483 80.0542L22.7787 75.7457C22.6552 75.7053 22.5618 75.7096 22.5045 75.7199C22.4262 75.7466 22.2696 75.7999 22.1854 75.9843L20.9945 78.4054C20.9374 78.5348 20.9648 78.8371 21.0252 78.9265L24.4473 84.0209C24.9059 84.6529 25.148 85.7251 25.0163 86.5763L24.163 92.0899C24.0283 92.9604 23.5679 93.6577 22.8843 94.0003C22.2006 94.3428 21.396 94.2684 20.6904 93.7937L12.4286 88.2109C12.1753 88.0497 11.9945 88.0195 11.9342 88.0492C11.874 88.0789 11.7747 88.2409 11.7268 88.5505L11.3406 91.0461C11.2268 91.7812 11.6587 92.8255 12.2316 93.1987L21.6001 99.5413C22.3388 100.041 22.7557 101.063 22.612 101.992L21.7138 107.796C21.5162 109.072 22.2019 110.873 23.1971 111.634C23.3298 111.736 23.5106 111.766 23.6853 111.716C24.8239 111.31 26.0428 109.787 26.2374 108.529L27.1356 102.725C27.2763 101.816 27.9836 100.961 28.8361 100.726L39.6477 97.7443C40.3225 97.5788 41.0478 96.7272 41.1586 96.0114L41.5449 93.5158C41.5928 93.2063 41.5474 93.0202 41.4991 92.9724C41.4509 92.9247 41.27 92.8946 40.9808 92.9655L31.4676 95.5883C31.1181 95.6889 30.7626 95.7091 30.4371 95.6549Z" fill="#A4D144"/>
<path d="M165.179 201.726C165.535 201.922 165.871 202.196 166.131 202.539C166.713 203.304 166.95 204.3 166.774 205.291L166.314 207.967C166.106 209.183 165.149 210.32 164.039 210.706L158.346 212.625C158.271 212.65 158.109 212.805 158.064 212.891L155.873 217.164L164.994 217.824C166.211 217.918 167.187 218.523 167.672 219.479C168.157 220.434 168.113 221.653 167.536 222.777L166.392 225.009C165.523 226.704 163.46 227.896 161.71 227.708L150.887 226.93L148.368 231.843C147.295 233.936 144.688 235.582 142.445 235.587C141.373 235.573 140.403 235.038 139.809 234.133C138.543 232.192 138.393 229.047 139.466 226.954L141.985 222.041L135.264 213.14C134.162 211.689 133.968 209.318 134.846 207.605L135.99 205.374C136.575 204.232 137.5 203.521 138.551 203.413C139.602 203.305 140.615 203.797 141.379 204.774L147.005 212.249L149.196 207.977C149.232 207.907 149.256 207.699 149.234 207.62L147.578 201.625C147.257 200.471 147.649 198.979 148.496 198.136L150.378 196.245C151.087 195.549 152.015 195.196 152.96 195.295C153.889 195.386 154.712 195.884 155.244 196.666C155.298 196.763 155.353 196.859 155.398 196.973L157.427 202.442C157.494 202.635 157.762 202.76 157.928 202.719L163.434 201.407C163.534 201.373 163.642 201.366 163.74 201.376C164.253 201.348 164.742 201.485 165.179 201.726ZM153.918 219.725C153.546 219.519 153.243 219.219 153.051 218.825C152.689 218.115 152.712 217.262 153.12 216.466L155.648 211.536C156.029 210.792 156.821 210.097 157.572 209.846L163.265 207.926C163.374 207.876 163.572 207.652 163.593 207.53L164.061 204.837C164.101 204.637 164.023 204.506 163.976 204.435C163.937 204.391 163.874 204.312 163.759 204.293L158.461 205.564C156.963 205.937 155.362 205.054 154.822 203.557L152.884 198.316C152.78 198.236 152.69 198.209 152.633 198.199C152.55 198.198 152.385 198.196 152.248 198.342L150.366 200.233C150.272 200.337 150.203 200.632 150.232 200.737L151.881 206.706C152.117 207.458 152.012 208.554 151.622 209.315L149.094 214.245C148.695 215.023 148.041 215.529 147.288 215.623C146.534 215.718 145.796 215.377 145.276 214.691L139.201 206.635C139.012 206.397 138.85 206.308 138.784 206.316C138.718 206.324 138.573 206.444 138.431 206.721L137.287 208.952C136.95 209.609 137.033 210.743 137.459 211.288L144.344 220.435C144.886 221.156 144.962 222.263 144.536 223.093L141.875 228.283C141.29 229.425 141.377 231.359 142.081 232.413C142.175 232.554 142.336 232.643 142.517 232.654C143.721 232.652 145.35 231.62 145.927 230.496L148.587 225.306C149.004 224.493 149.94 223.922 150.82 223.986L161.98 224.794C162.67 224.864 163.622 224.302 163.951 223.662L165.095 221.43C165.237 221.153 165.252 220.962 165.221 220.901C165.19 220.839 165.029 220.75 164.733 220.72L154.913 220.008C154.551 219.985 154.209 219.885 153.918 219.725Z" fill="#A4D144"/>
<path d="M48.2562 441.216C48.5053 440.888 48.8251 440.593 49.1965 440.388C50.0255 439.929 51.0122 439.864 51.9208 440.218L54.3788 441.16C55.4961 441.588 56.4059 442.765 56.5759 443.967L57.3911 450.119C57.4017 450.2 57.5197 450.393 57.594 450.453L61.2613 453.445L63.4989 444.25C63.8035 443.024 64.55 442.135 65.5423 441.808C66.5347 441.482 67.6832 441.742 68.6483 442.529L70.5636 444.092C72.0186 445.279 72.7851 447.596 72.2971 449.349L69.6465 460.261L73.8632 463.701C75.6597 465.167 76.7612 468.12 76.37 470.411C76.1673 471.502 75.488 472.398 74.5246 472.845C72.4591 473.794 69.4478 473.392 67.6513 471.926L63.4346 468.486L53.8014 473.775C52.2296 474.644 49.9453 474.424 48.4754 473.225L46.5601 471.662C45.5802 470.863 45.0692 469.793 45.1524 468.701C45.2356 467.609 45.8816 466.662 46.9434 466.054L55.0309 461.631L51.3636 458.639C51.3042 458.591 51.1105 458.529 51.032 458.538L45.0506 459.168C43.8992 459.293 42.5522 458.629 41.9026 457.615L40.4409 455.36C39.9058 454.512 39.7343 453.502 39.9957 452.555C40.2457 451.623 40.8641 450.871 41.7002 450.466C41.8013 450.427 41.9025 450.389 42.0185 450.363L47.5665 449.258C47.761 449.223 47.9273 448.972 47.9174 448.795L47.6452 442.941C47.6311 442.833 47.6432 442.722 47.6701 442.623C47.734 442.095 47.9506 441.62 48.2562 441.216ZM63.3453 455.894C63.0849 456.238 62.7467 456.494 62.3386 456.62C61.6009 456.864 60.7954 456.69 60.1124 456.133L55.8809 452.681C55.2425 452.16 54.723 451.229 54.6172 450.418L53.802 444.266C53.773 444.146 53.5956 443.905 53.4839 443.862L51.011 442.908C50.8286 442.832 50.6899 442.888 50.6149 442.923C50.5661 442.956 50.4798 443.006 50.4416 443.12L50.7118 448.754C50.8003 450.349 49.6794 451.827 48.1644 452.114L42.8484 453.167C42.7543 453.259 42.7126 453.346 42.6935 453.403C42.6779 453.487 42.6467 453.655 42.7612 453.821L44.2229 456.076C44.3042 456.191 44.5722 456.313 44.6769 456.302L50.6321 455.674C51.3874 455.565 52.4086 455.866 53.0619 456.399L57.2934 459.851C57.9615 460.396 58.3254 461.152 58.282 461.939C58.2386 462.725 57.785 463.418 57.0422 463.827L48.3244 468.606C48.0655 468.758 47.9523 468.907 47.948 468.976C47.9437 469.045 48.0321 469.214 48.2696 469.407L50.185 470.97C50.7492 471.43 51.839 471.546 52.4318 471.208L62.3274 465.795C63.1076 465.368 64.1713 465.486 64.8839 466.068L69.3382 469.701C70.3181 470.501 72.1688 470.754 73.2935 470.221C73.4435 470.15 73.5567 470.001 73.5992 469.818C73.8104 468.589 73.1188 466.743 72.1537 465.956L67.6994 462.322C67.0016 461.753 66.6251 460.697 66.8411 459.81L69.5802 448.558C69.7686 447.866 69.4034 446.795 68.854 446.347L66.9387 444.784C66.7012 444.59 66.5222 444.541 66.4586 444.562C66.3949 444.582 66.2817 444.732 66.201 445.028L63.7898 454.928C63.7048 455.293 63.5491 455.626 63.3453 455.894Z" fill="#A4D144"/>
<path d="M276.274 435.631C276.26 435.213 276.321 434.774 276.478 434.369C276.826 433.463 277.54 432.754 278.455 432.417L280.919 431.493C282.039 431.073 283.466 431.365 284.343 432.17L288.79 436.327C288.848 436.382 289.058 436.45 289.153 436.447L293.816 436.282L289.811 427.756C289.282 426.615 289.3 425.436 289.856 424.523C290.411 423.61 291.451 423.041 292.678 422.997L295.113 422.911C296.963 422.845 298.989 424.104 299.706 425.77L304.462 435.885L309.824 435.695C312.108 435.614 314.785 437.134 315.91 439.147C316.433 440.117 316.471 441.256 316.012 442.242C315.023 444.349 312.471 446.055 310.187 446.136L304.825 446.326L300.749 456.812C300.087 458.527 298.204 459.886 296.335 459.952L293.9 460.039C292.654 460.083 291.599 459.607 290.983 458.717C290.368 457.826 290.273 456.67 290.707 455.495L294.14 446.706L289.478 446.871C289.402 446.874 289.216 446.956 289.161 447.015L284.981 451.498C284.178 452.362 282.735 452.756 281.609 452.416L279.09 451.669C278.154 451.379 277.395 450.721 277.006 449.823C276.618 448.943 276.623 447.954 277.011 447.085C277.064 446.988 277.118 446.892 277.19 446.794L280.744 442.239C280.871 442.082 280.842 441.779 280.725 441.65L276.879 437.358C276.801 437.285 276.741 437.192 276.7 437.098C276.421 436.652 276.291 436.143 276.274 435.631ZM296.931 436.76C296.945 437.197 296.846 437.619 296.612 437.988C296.2 438.668 295.476 439.074 294.608 439.105L289.228 439.296C288.416 439.325 287.44 438.96 286.855 438.41L282.409 434.253C282.312 434.181 282.026 434.115 281.914 434.157L279.431 435.081C279.244 435.145 279.173 435.281 279.138 435.358C279.121 435.416 279.086 435.512 279.127 435.624L282.836 439.751C283.895 440.911 283.956 442.79 282.977 444.022L279.567 448.382C279.553 448.516 279.575 448.61 279.595 448.666C279.636 448.741 279.716 448.89 279.907 448.94L282.426 449.687C282.56 449.721 282.84 449.635 282.913 449.556L287.075 445.094C287.585 444.505 288.553 444.053 289.384 444.023L294.764 443.832C295.613 443.802 296.362 444.137 296.817 444.767C297.273 445.397 297.357 446.23 297.043 447.04L293.349 456.523C293.245 456.812 293.252 457.002 293.291 457.057C293.331 457.113 293.503 457.183 293.805 457.172L296.241 457.086C296.958 457.06 297.863 456.42 298.106 455.765L302.306 445.009C302.637 444.161 303.524 443.54 304.43 443.508L310.093 443.307C311.339 443.263 312.912 442.219 313.44 441.06C313.511 440.905 313.505 440.715 313.423 440.547C312.821 439.466 311.145 438.518 309.918 438.561L304.255 438.762C303.367 438.794 302.423 438.238 302.037 437.416L297.138 426.983C296.852 426.328 295.906 425.753 295.208 425.778L292.773 425.864C292.471 425.875 292.303 425.957 292.267 426.015C292.231 426.073 292.238 426.263 292.36 426.544L296.67 435.724C296.832 436.061 296.92 436.419 296.931 436.76Z" fill="#A4D144"/>
</svg>
