<svg width="200" height="200" viewBox="0 0 219 219" fill="none" xmlns="http://www.w3.org/2000/svg">
<circle cx="109.5" cy="109.5" r="108.5" stroke="black" stroke-width="2"/>
<path d="M127.704 22.0484L125.626 22.5931C125.431 21.5592 124.995 20.7299 124.319 20.1054C123.642 19.4808 122.784 19.1049 121.743 18.9776C121.182 18.909 120.669 18.938 120.204 19.0647C119.748 19.1835 119.335 19.3762 118.962 19.6428C118.599 19.9106 118.275 20.2336 117.99 20.6119C117.714 20.9914 117.475 21.403 117.274 21.8466C117.073 22.2903 116.91 22.7571 116.786 23.2469C116.663 23.7277 116.573 24.1988 116.516 24.6602C116.456 25.1578 116.421 25.6633 116.413 26.1765C116.406 26.6898 116.436 27.1894 116.506 27.6754C116.585 28.1534 116.708 28.6092 116.875 29.0429C117.044 29.4676 117.273 29.8491 117.562 30.1875C117.86 30.527 118.225 30.8104 118.656 31.0376C119.096 31.266 119.615 31.4167 120.212 31.4898C120.692 31.5484 121.158 31.532 121.61 31.4403C122.062 31.3487 122.484 31.1939 122.878 30.9758C123.272 30.7577 123.632 30.4849 123.957 30.1573C124.281 29.8297 124.552 29.4543 124.769 29.0309L126.675 30.0078C126.289 30.686 125.815 31.257 125.253 31.7208C124.701 32.1767 124.092 32.5384 123.426 32.8058C122.761 33.0642 122.061 33.2311 121.326 33.3064C120.591 33.3818 119.858 33.3747 119.125 33.285C117.94 33.14 116.865 32.8065 115.9 32.2844C114.937 31.7533 114.128 31.0805 113.475 30.266C112.832 29.4435 112.363 28.5092 112.069 27.4631C111.776 26.4079 111.702 25.2832 111.848 24.089C111.995 22.8858 112.334 21.8069 112.864 20.8525C113.403 19.8992 114.083 19.1055 114.905 18.4714C115.726 17.8373 116.668 17.3832 117.73 17.1091C118.792 16.835 119.924 16.7716 121.127 16.9188C121.887 17.0118 122.619 17.1885 123.322 17.449C124.025 17.7004 124.663 18.0401 125.235 18.4683C125.817 18.8884 126.32 19.3953 126.743 19.9889C127.176 20.5835 127.496 21.2701 127.704 22.0484Z" fill="black"/>
<path d="M148.809 32.523C148.414 33.5133 147.878 34.4969 147.204 35.4738C146.537 36.4541 145.782 37.3744 144.938 38.2346C144.094 39.0948 143.19 39.8577 142.227 40.5233C141.261 41.1974 140.287 41.7208 139.303 42.0937L138.041 40.5735C138.438 40.2416 138.844 39.8538 139.256 39.4102C139.669 38.9665 140.073 38.4848 140.467 37.965C140.873 37.4401 141.264 36.8899 141.641 36.3142C142.027 35.742 142.384 35.168 142.712 34.5924C143.052 34.0117 143.358 33.4421 143.63 32.8834C143.914 32.3196 144.156 31.7881 144.356 31.2887C144.487 30.9586 144.615 30.6022 144.738 30.2197C144.865 29.8286 144.961 29.43 145.025 29.0237C145.101 28.6124 145.14 28.2062 145.144 27.8051C145.147 27.4039 145.086 27.0265 144.963 26.6728C144.847 26.3225 144.661 26.0027 144.404 25.7134C144.155 25.4275 143.814 25.1983 143.383 25.0259C142.96 24.8568 142.544 24.8037 142.136 24.8665C141.732 24.9209 141.34 25.0539 140.961 25.2657C140.585 25.469 140.225 25.7323 139.88 26.0558C139.543 26.3826 139.231 26.7339 138.943 27.1098C138.668 27.4806 138.423 27.859 138.21 28.245C137.997 28.631 137.826 28.9848 137.698 29.3065L134.761 36.6577L130.457 34.9384L138.471 14.8781L142.762 16.5923L139.744 24.1467C140.616 23.5623 141.535 23.2132 142.503 23.0994C143.483 22.9804 144.46 23.1154 145.433 23.5042C146.449 23.9099 147.268 24.4283 147.889 25.0593C148.511 25.6903 148.953 26.4019 149.215 27.1938C149.482 27.9774 149.575 28.8244 149.496 29.735C149.42 30.6372 149.191 31.5665 148.809 32.523Z" fill="black"/>
<path d="M162.203 53.0612L158.538 50.246L159.687 48.7498C158.798 49.0094 157.936 49.0477 157.099 48.8649C156.275 48.6803 155.499 48.3077 154.768 47.7469C153.814 47.0139 153.092 46.1889 152.601 45.2717C152.11 44.3545 151.83 43.4033 151.759 42.418C151.694 41.4255 151.829 40.4262 152.166 39.4202C152.502 38.4141 153.02 37.4557 153.719 36.5449C154.419 35.6342 155.211 34.8868 156.097 34.3027C156.982 33.7186 157.91 33.3337 158.88 33.148C159.856 32.9551 160.85 32.9775 161.863 33.2153C162.876 33.453 163.859 33.9384 164.813 34.6713C165.297 35.0433 165.701 35.4682 166.023 35.9459C166.353 36.4292 166.596 36.9434 166.752 37.4884C166.921 38.0318 166.998 38.5969 166.984 39.1838C166.983 39.769 166.887 40.3503 166.696 40.9279L170.413 39.4558L171.822 40.5386L162.203 53.0612ZM163.347 43.941C163.597 43.6157 163.843 43.2585 164.084 42.8693C164.333 42.4857 164.553 42.0863 164.746 41.671C164.938 41.2558 165.085 40.8336 165.184 40.4045C165.297 39.9737 165.336 39.5494 165.3 39.1315C165.278 38.712 165.167 38.3105 164.967 37.9272C164.767 37.5439 164.461 37.194 164.049 36.8775C163.637 36.561 163.221 36.362 162.801 36.2806C162.386 36.192 161.973 36.1909 161.562 36.2773C161.157 36.3564 160.757 36.5031 160.362 36.7173C159.975 36.9371 159.606 37.1935 159.254 37.4866C158.902 37.7797 158.57 38.0931 158.256 38.4267C157.955 38.7587 157.682 39.0837 157.438 39.4017C157.194 39.7198 156.947 40.0706 156.699 40.4542C156.457 40.8434 156.24 41.2456 156.047 41.6608C155.855 42.0761 155.702 42.4991 155.59 42.9298C155.484 43.3662 155.443 43.7941 155.466 44.2137C155.494 44.626 155.601 45.0246 155.788 45.4096C155.981 45.7874 156.283 46.1345 156.695 46.451C157.071 46.7398 157.462 46.9193 157.867 46.9896C158.286 47.0583 158.703 47.0458 159.12 46.9521C159.544 46.864 159.96 46.7121 160.367 46.4962C160.774 46.2803 161.161 46.0313 161.527 45.7494C161.893 45.4674 162.231 45.1696 162.541 44.8559C162.856 44.5351 163.125 44.2301 163.347 43.941Z" fill="black"/>
<path d="M183.029 64.5691C182.175 65.2083 181.206 65.7689 180.121 66.2511C179.042 66.7406 177.917 67.1325 176.749 67.4268C175.58 67.7211 174.411 67.9015 173.243 67.968C172.067 68.04 170.962 67.9789 169.929 67.7848L169.643 65.8295C170.156 65.7533 170.704 65.6335 171.287 65.4699C171.87 65.3063 172.466 65.1054 173.073 64.8671C173.693 64.6306 174.314 64.365 174.936 64.0702C175.563 63.7827 176.167 63.4788 176.747 63.1584C177.339 62.8399 177.898 62.5132 178.421 62.1782C178.957 61.845 179.441 61.5173 179.871 61.195C180.156 60.982 180.45 60.7443 180.755 60.4821C181.067 60.2144 181.356 59.9239 181.622 59.6106C181.901 59.2991 182.147 58.973 182.359 58.6323C182.57 58.2915 182.716 57.938 182.794 57.5717C182.878 57.2126 182.886 56.8426 182.817 56.4615C182.754 56.0878 182.583 55.7149 182.304 55.3428C182.031 54.9779 181.704 54.7161 181.323 54.5572C180.949 54.3928 180.546 54.3022 180.112 54.2855C179.685 54.2632 179.241 54.3002 178.777 54.3965C178.32 54.5 177.87 54.6372 177.429 54.8082C177.001 54.981 176.595 55.1767 176.212 55.3951C175.829 55.6135 175.499 55.8265 175.221 56.0341L168.885 60.7785L166.107 57.0683L178.748 47.6042L179.813 49.027L178.139 52.9276C178.781 52.7659 179.417 52.688 180.048 52.694C180.678 52.7 181.281 52.7898 181.855 52.9635C182.429 53.1371 182.967 53.4001 183.47 53.7523C183.978 54.1119 184.437 54.5652 184.847 55.1125C185.503 55.988 185.931 56.857 186.133 57.7194C186.335 58.5818 186.341 59.4194 186.153 60.2323C185.972 61.0397 185.61 61.8114 185.068 62.5474C184.533 63.278 183.854 63.9519 183.029 64.5691Z" fill="black"/>
<path d="M185.538 88.3842C184.364 88.8362 183.191 89.0877 182.019 89.1386C180.847 89.1895 179.746 89.0323 178.717 88.667C177.679 88.3049 176.747 87.7259 175.923 86.9299C175.094 86.1456 174.442 85.1369 173.967 83.9036C173.705 83.2231 173.516 82.5047 173.4 81.7483C173.288 81.0003 173.274 80.2537 173.358 79.5083C173.437 78.7747 173.628 78.0662 173.931 77.3829C174.229 76.7114 174.656 76.1075 175.211 75.5713L176.63 77.1638C176.276 77.4859 175.973 77.8417 175.723 78.2312C175.476 78.6292 175.294 79.0458 175.179 79.481C175.055 79.9195 175.003 80.3691 175.024 80.8297C175.037 81.2937 175.13 81.7511 175.304 82.2019C175.631 83.0524 176.079 83.6955 176.647 84.1311C177.219 84.5751 177.852 84.8634 178.548 84.996C179.244 85.1285 179.978 85.1337 180.752 85.0116C181.517 84.8929 182.265 84.6926 182.996 84.4109L183.864 84.0767C182.97 83.835 182.214 83.4182 181.595 82.8263C180.988 82.2395 180.519 81.5167 180.188 80.6576C179.756 79.5349 179.569 78.4542 179.628 77.4157C179.687 76.3771 179.944 75.419 180.397 74.5413C180.858 73.6602 181.495 72.878 182.306 72.1944C183.117 71.5109 184.058 70.9627 185.13 70.55C186.202 70.1372 187.268 69.9123 188.328 69.8751C189.388 69.838 190.38 69.993 191.305 70.3401C192.238 70.6838 193.075 71.221 193.816 71.9517C194.556 72.6823 195.143 73.609 195.575 74.7317C195.794 75.3016 195.917 75.8744 195.944 76.4503C195.974 77.0346 195.913 77.6001 195.762 78.1465C195.623 78.6982 195.394 79.2209 195.077 79.7144C194.771 80.2132 194.386 80.6594 193.922 81.0529L197.861 81.7333L198.5 83.3919L185.538 88.3842ZM189.493 81.8794C189.876 81.732 190.272 81.5551 190.681 81.3488C191.093 81.151 191.489 80.925 191.87 80.671C192.251 80.4169 192.596 80.1327 192.904 79.8185C193.225 79.5095 193.479 79.1674 193.667 78.7924C193.866 78.4226 193.98 78.022 194.01 77.5908C194.039 77.1595 193.96 76.7015 193.773 76.2167C193.587 75.7318 193.335 75.3452 193.019 75.0568C192.711 74.765 192.36 74.5489 191.964 74.4084C191.576 74.2646 191.158 74.1814 190.71 74.1587C190.265 74.1445 189.816 74.1709 189.363 74.2378C188.91 74.3048 188.463 74.3989 188.022 74.5201C187.592 74.6466 187.19 74.7819 186.815 74.9261C186.441 75.0702 186.048 75.2412 185.636 75.439C185.227 75.6453 184.832 75.8755 184.451 76.1296C184.071 76.3837 183.72 76.6652 183.399 76.9742C183.082 77.2917 182.824 77.6354 182.624 78.0052C182.434 78.3718 182.318 78.7681 182.276 79.1941C182.244 79.6168 182.321 80.0706 182.508 80.5554C182.678 80.9977 182.918 81.3546 183.228 81.626C183.549 81.9027 183.912 82.1096 184.317 82.2469C184.724 82.3926 185.158 82.4795 185.618 82.5074C186.078 82.5353 186.538 82.5243 186.997 82.4744C187.457 82.4244 187.9 82.3464 188.328 82.2402C188.765 82.1307 189.153 82.0104 189.493 81.8794Z" fill="black"/>
<path d="M192.766 97.4967C192.695 98.0717 192.652 98.644 192.636 99.2136C192.62 99.7832 192.64 100.354 192.698 100.925C192.758 101.524 192.868 102.071 193.028 102.568C193.197 103.073 193.433 103.499 193.733 103.844C194.043 104.198 194.431 104.461 194.898 104.634C195.364 104.807 195.928 104.86 196.59 104.794C197.125 104.74 197.608 104.618 198.037 104.429C198.467 104.239 198.826 103.983 199.115 103.661C199.404 103.348 199.614 102.974 199.744 102.54C199.883 102.104 199.925 101.61 199.87 101.057C199.818 100.54 199.676 100.082 199.444 99.6844C199.212 99.2954 198.917 98.9586 198.559 98.6739C198.211 98.3975 197.812 98.1672 197.363 97.9833C196.915 97.8085 196.452 97.6717 195.975 97.573C195.498 97.4743 195.02 97.4169 194.543 97.4008C194.065 97.3847 193.617 97.3975 193.2 97.4394C193.127 97.4467 193.055 97.454 192.982 97.4613C192.91 97.4685 192.838 97.4804 192.766 97.4967ZM197.005 108.517C196.361 108.582 195.775 108.535 195.246 108.378C194.726 108.219 194.258 107.978 193.84 107.653C193.424 107.338 193.061 106.957 192.75 106.512C192.44 106.067 192.172 105.585 191.946 105.068C191.729 104.549 191.555 104.008 191.425 103.444C191.296 102.889 191.205 102.344 191.151 101.808C191.083 101.128 191.061 100.453 191.085 99.7815C191.119 99.1094 191.207 98.441 191.351 97.7762C190.763 97.936 190.207 98.1521 189.685 98.4244C189.172 98.6957 188.729 99.0333 188.358 99.437C187.995 99.8398 187.722 100.316 187.539 100.866C187.357 101.424 187.302 102.067 187.375 102.792C187.424 103.273 187.542 103.724 187.731 104.144C187.92 104.565 188.164 104.944 188.463 105.28C188.763 105.616 189.107 105.902 189.497 106.138C189.888 106.383 190.315 106.569 190.776 106.697L190.241 108.756C189.495 108.529 188.832 108.179 188.253 107.706C187.684 107.241 187.195 106.694 186.783 106.067C186.382 105.448 186.063 104.774 185.825 104.047C185.588 103.329 185.433 102.607 185.36 101.881C185.24 100.684 185.328 99.5579 185.626 98.5021C185.932 97.4454 186.411 96.5134 187.062 95.7059C187.714 94.8985 188.522 94.2357 189.487 93.7174C190.452 93.1992 191.533 92.88 192.73 92.7598C193.927 92.6396 195.05 92.7376 196.099 93.0537C197.147 93.3698 198.071 93.8588 198.87 94.5205C199.669 95.1823 200.32 96.001 200.821 96.9766C201.331 97.9514 201.646 99.0373 201.766 100.234C201.824 100.815 201.843 101.413 201.822 102.029C201.802 102.645 201.73 103.247 201.606 103.837C201.491 104.425 201.318 104.988 201.088 105.524C200.858 106.06 200.553 106.535 200.173 106.949C199.803 107.371 199.357 107.718 198.835 107.99C198.313 108.271 197.703 108.447 197.005 108.517Z" fill="black"/>
<path d="M196.92 140.248L184.878 131.253C183.503 130.225 182.165 129.127 180.864 127.959C179.552 126.796 178.318 125.584 177.164 124.321L178.669 122.842C179.01 123.164 179.403 123.542 179.848 123.975C180.292 124.408 180.756 124.841 181.238 125.274C181.72 125.708 182.203 126.118 182.688 126.505C183.164 126.889 183.61 127.205 184.027 127.452L200.901 124.628L199.76 129.106L188.255 131.013L197.71 137.148L196.92 140.248Z" fill="black"/>
<path d="M179.385 157.707C178.665 157.314 178.041 156.849 177.514 156.312C176.987 155.775 176.549 155.188 176.201 154.551C175.849 153.922 175.588 153.25 175.418 152.534C175.256 151.823 175.184 151.098 175.203 150.36C175.217 149.631 175.324 148.894 175.522 148.151C175.716 147.416 176 146.704 176.376 146.016C176.752 145.328 177.197 144.704 177.711 144.143C178.224 143.583 178.787 143.095 179.397 142.681C180.003 142.275 180.65 141.948 181.336 141.699C182.03 141.455 182.739 141.307 183.462 141.256C184.182 141.213 184.91 141.268 185.647 141.421C186.392 141.579 187.12 141.852 187.832 142.241C188.544 142.629 189.163 143.092 189.69 143.63C190.226 144.171 190.669 144.756 191.022 145.385C191.37 146.022 191.625 146.696 191.787 147.407C191.956 148.123 192.034 148.846 192.02 149.575C192.001 150.313 191.895 151.049 191.701 151.785C191.507 152.52 191.223 153.232 190.847 153.92C190.471 154.608 190.026 155.232 189.512 155.792C188.994 156.361 188.432 156.848 187.826 157.255C187.215 157.669 186.563 157.998 185.869 158.242C185.183 158.491 184.48 158.636 183.761 158.68C183.037 158.731 182.303 158.678 181.558 158.52C180.821 158.367 180.097 158.096 179.385 157.707ZM181.639 153.58C182.023 153.789 182.44 153.986 182.89 154.169C183.344 154.365 183.803 154.523 184.268 154.642C184.741 154.765 185.215 154.837 185.692 154.858C186.172 154.892 186.624 154.853 187.048 154.742C187.48 154.636 187.881 154.444 188.25 154.168C188.627 153.896 188.949 153.516 189.215 153.028C189.468 152.564 189.605 152.104 189.626 151.648C189.647 151.192 189.583 150.747 189.436 150.314C189.292 149.892 189.078 149.485 188.795 149.091C188.507 148.706 188.186 148.343 187.831 148.004C187.484 147.669 187.112 147.362 186.714 147.082C186.324 146.807 185.946 146.569 185.578 146.368C185.21 146.167 184.801 145.975 184.35 145.791C183.908 145.612 183.449 145.465 182.971 145.35C182.494 145.235 182.016 145.16 181.536 145.127C181.059 145.105 180.601 145.146 180.161 145.248C179.724 145.363 179.32 145.552 178.947 145.816C178.574 146.08 178.261 146.444 178.008 146.907C177.746 147.387 177.598 147.857 177.565 148.317C177.54 148.781 177.6 149.224 177.744 149.645C177.883 150.074 178.093 150.48 178.373 150.861C178.652 151.242 178.972 151.598 179.331 151.93C179.686 152.269 180.064 152.574 180.466 152.846C180.864 153.125 181.255 153.37 181.639 153.58Z" fill="black"/>
<path d="M174.936 161.687C175.452 162.189 175.946 162.753 176.418 163.379C176.884 164.011 177.315 164.679 177.711 165.383C178.1 166.093 178.452 166.83 178.765 167.593C179.077 168.356 179.339 169.126 179.549 169.903L177.192 172.322C176.861 171.681 176.492 171.035 176.084 170.383C175.676 169.744 175.249 169.118 174.803 168.505C174.357 167.905 173.904 167.331 173.446 166.782C172.981 166.24 172.53 165.756 172.093 165.33C171.838 165.082 171.555 164.825 171.242 164.558C170.929 164.304 170.597 164.064 170.246 163.836C169.902 163.615 169.545 163.427 169.175 163.27C168.8 163.12 168.424 163.029 168.05 162.995C167.682 162.967 167.319 163.014 166.96 163.135C166.6 163.268 166.259 163.501 165.934 163.834C165.616 164.161 165.405 164.521 165.3 164.916C165.196 165.323 165.166 165.739 165.21 166.164C165.261 166.595 165.373 167.029 165.546 167.465C165.72 167.901 165.925 168.317 166.162 168.714C166.399 169.123 166.652 169.497 166.921 169.835C167.19 170.186 167.448 170.483 167.696 170.724L173.366 176.249L170.141 179.558L158.831 168.539L160.071 167.266L164.184 168.314C163.931 167.699 163.759 167.079 163.667 166.455C163.575 165.844 163.571 165.241 163.653 164.647C163.736 164.053 163.915 163.477 164.192 162.919C164.462 162.368 164.835 161.847 165.312 161.358C166.075 160.574 166.867 160.016 167.688 159.683C168.509 159.35 169.332 159.211 170.158 159.264C170.983 159.318 171.799 159.552 172.603 159.967C173.414 160.389 174.192 160.962 174.936 161.687Z" fill="black"/>
<path d="M150.69 191.042L150.624 186.013C150.909 186.265 151.246 186.539 151.633 186.835C152.021 187.131 152.426 187.378 152.85 187.576C153.278 187.782 153.713 187.903 154.155 187.94C154.601 187.985 155.022 187.885 155.416 187.639C155.78 187.413 156.04 187.123 156.195 186.769C156.343 186.42 156.416 186.036 156.415 185.619C156.418 185.209 156.363 184.776 156.251 184.32C156.137 183.876 155.994 183.439 155.823 183.009C155.649 182.591 155.463 182.197 155.265 181.826C155.072 181.463 154.896 181.154 154.737 180.899L150.56 174.175L154.497 171.729L162.83 185.142L161.32 186.08L157.788 183.944C157.884 184.582 157.923 185.197 157.904 185.788C157.89 186.387 157.794 186.95 157.618 187.478C157.447 188.014 157.185 188.509 156.835 188.963C156.476 189.422 156.006 189.832 155.426 190.193C155.124 190.38 154.77 190.563 154.365 190.739C153.964 190.924 153.547 191.065 153.114 191.162C152.686 191.267 152.261 191.317 151.839 191.311C151.416 191.305 151.034 191.215 150.69 191.042Z" fill="black"/>
<path d="M120.104 197.859L121.888 196.664C122.411 197.578 123.094 198.219 123.938 198.587C124.782 198.956 125.716 199.03 126.741 198.81C127.293 198.691 127.768 198.496 128.167 198.224C128.558 197.963 128.886 197.645 129.151 197.271C129.406 196.899 129.607 196.488 129.753 196.037C129.889 195.588 129.98 195.121 130.025 194.636C130.07 194.151 130.071 193.657 130.028 193.153C129.987 192.659 129.917 192.184 129.82 191.73C129.714 191.24 129.581 190.751 129.421 190.263C129.26 189.776 129.067 189.314 128.843 188.877C128.612 188.451 128.346 188.061 128.046 187.706C127.748 187.36 127.407 187.074 127.023 186.849C126.63 186.626 126.192 186.477 125.71 186.404C125.22 186.332 124.68 186.36 124.092 186.486C123.62 186.587 123.185 186.755 122.788 186.99C122.391 187.225 122.042 187.509 121.741 187.844C121.44 188.179 121.19 188.555 120.99 188.971C120.79 189.386 120.657 189.83 120.591 190.301L118.471 190.001C118.614 189.234 118.874 188.54 119.254 187.917C119.626 187.306 120.083 186.765 120.625 186.294C121.169 185.832 121.775 185.446 122.445 185.134C123.114 184.822 123.81 184.589 124.532 184.434C125.699 184.183 126.824 184.146 127.906 184.324C128.991 184.51 129.975 184.881 130.859 185.437C131.736 186.004 132.484 186.733 133.105 187.626C133.727 188.527 134.165 189.565 134.418 190.742C134.673 191.927 134.706 193.057 134.517 194.132C134.32 195.209 133.937 196.182 133.368 197.05C132.8 197.918 132.059 198.655 131.145 199.262C130.231 199.869 129.182 200.299 127.996 200.554C127.248 200.715 126.499 200.787 125.75 200.771C125.002 200.764 124.288 200.652 123.608 200.434C122.92 200.228 122.279 199.913 121.685 199.491C121.082 199.071 120.555 198.527 120.104 197.859Z" fill="black"/>
<path d="M97.2748 185.832L101.89 186.057L101.798 187.942C102.381 187.222 103.068 186.699 103.86 186.373C104.642 186.055 105.493 185.919 106.412 185.964C107.614 186.022 108.678 186.289 109.603 186.763C110.529 187.237 111.302 187.859 111.921 188.628C112.54 189.407 112.998 190.305 113.295 191.323C113.592 192.342 113.713 193.424 113.657 194.572C113.601 195.719 113.375 196.784 112.98 197.769C112.585 198.753 112.042 199.598 111.351 200.304C110.659 201.018 109.829 201.566 108.861 201.948C107.894 202.329 106.809 202.491 105.607 202.432C104.997 202.402 104.424 202.283 103.886 202.074C103.34 201.865 102.847 201.581 102.409 201.222C101.96 200.871 101.575 200.451 101.252 199.961C100.92 199.479 100.667 198.947 100.495 198.363L98.2792 201.691L96.504 201.604L97.2748 185.832ZM101.531 193.979C101.511 194.389 101.512 194.822 101.535 195.28C101.55 195.737 101.596 196.19 101.674 196.641C101.753 197.092 101.873 197.523 102.036 197.932C102.188 198.35 102.398 198.721 102.666 199.044C102.923 199.376 103.243 199.643 103.626 199.844C104.008 200.045 104.459 200.159 104.978 200.184C105.497 200.209 105.952 200.136 106.344 199.963C106.735 199.8 107.075 199.565 107.364 199.26C107.652 198.964 107.897 198.616 108.099 198.215C108.292 197.814 108.45 197.392 108.572 196.951C108.694 196.51 108.788 196.063 108.856 195.61C108.914 195.166 108.953 194.743 108.973 194.343C108.992 193.942 108.995 193.513 108.981 193.056C108.958 192.599 108.907 192.145 108.829 191.694C108.75 191.243 108.635 190.808 108.482 190.39C108.32 189.972 108.11 189.596 107.852 189.264C107.594 188.941 107.279 188.675 106.906 188.465C106.532 188.264 106.086 188.151 105.567 188.126C105.094 188.103 104.67 188.178 104.297 188.351C103.914 188.533 103.578 188.782 103.289 189.096C102.99 189.41 102.735 189.772 102.524 190.181C102.312 190.591 102.136 191.015 101.996 191.456C101.856 191.896 101.748 192.333 101.672 192.768C101.596 193.211 101.548 193.615 101.531 193.979Z" fill="black"/>
<path d="M74.932 194.481L78.6756 191.122C78.6736 191.503 78.6887 191.936 78.721 192.423C78.7534 192.909 78.8342 193.377 78.9637 193.827C79.0904 194.285 79.2851 194.692 79.5478 195.049C79.8077 195.414 80.16 195.665 80.6045 195.801C81.0141 195.926 81.4035 195.931 81.7725 195.815C82.1328 195.697 82.4696 195.499 82.7827 195.223C83.0932 194.956 83.3835 194.63 83.6535 194.246C83.9122 193.868 84.1474 193.472 84.3592 193.061C84.5595 192.655 84.7341 192.255 84.8828 191.863C85.0289 191.478 85.146 191.142 85.2339 190.855L87.549 183.285L91.9811 184.64L87.363 199.741L85.6634 199.221L84.9478 195.156C84.5304 195.648 84.0929 196.082 83.6352 196.456C83.1748 196.84 82.6878 197.139 82.1742 197.353C81.6579 197.577 81.1133 197.706 80.5405 197.74C79.9588 197.772 79.3412 197.688 78.6875 197.488C78.3476 197.384 77.9777 197.238 77.578 197.049C77.1756 196.868 76.7953 196.647 76.437 196.385C76.0761 196.132 75.7589 195.844 75.4856 195.522C75.2124 195.2 75.0278 194.853 74.932 194.481Z" fill="black"/>
<path d="M63.749 194.798L67.5538 189.026L70.5403 190.512L68.2286 197.028L63.749 194.798Z" fill="black"/>
<path d="M54.6169 171.148C55.0273 170.59 55.4725 170.153 55.9527 169.839C56.4328 169.524 56.9312 169.308 57.4478 169.19C57.959 169.08 58.4865 169.055 59.0303 169.115C59.5688 169.183 60.1069 169.313 60.6446 169.505C61.1751 169.691 61.7005 169.93 62.221 170.223C62.7415 170.515 63.2367 170.834 63.7067 171.179C64.3382 171.644 64.8666 172.094 65.2918 172.531C65.7171 172.969 66.0852 173.437 66.3962 173.937C66.7018 174.445 66.9696 175.004 67.1996 175.614C67.4223 176.219 67.6504 176.924 67.8841 177.73L64.4102 177.908C64.4873 177.387 64.4777 176.854 64.3814 176.308C64.2724 175.764 64.1226 175.252 63.9321 174.773C63.7416 174.293 63.5244 173.874 63.2803 173.513C63.0363 173.153 62.8115 172.897 62.6058 172.746C62.437 172.621 62.2433 172.485 62.025 172.335C61.8012 172.194 61.5684 172.056 61.3265 171.924C61.0792 171.798 60.8248 171.69 60.5633 171.6C60.3017 171.509 60.0497 171.46 59.8072 171.451C59.5519 171.445 59.3144 171.491 59.0948 171.589C58.8624 171.69 58.6571 171.861 58.4789 172.104C58.2953 172.353 58.2021 172.619 58.1993 172.899C58.1837 173.182 58.2275 173.469 58.3305 173.759C58.4335 174.05 58.5821 174.34 58.7762 174.63C58.9704 174.92 59.1763 175.202 59.394 175.475C59.6044 175.743 59.8155 175.994 60.0274 176.229C60.2338 176.471 60.4099 176.686 60.5557 176.872C60.8233 177.216 61.1093 177.573 61.4136 177.944C61.7125 178.322 61.9996 178.709 62.275 179.104C62.5449 179.506 62.784 179.919 62.9922 180.344C63.193 180.763 63.3329 181.188 63.4117 181.62C63.4778 182.053 63.4664 182.491 63.3777 182.935C63.2761 183.381 63.0607 183.828 62.7313 184.276C62.1266 185.098 61.4602 185.666 60.7321 185.979C59.9913 186.294 59.2314 186.42 58.4524 186.356C57.6679 186.3 56.883 186.09 56.0975 185.728C55.312 185.365 54.5668 184.924 53.8618 184.406C53.3772 184.05 52.9047 183.623 52.4442 183.126C51.9784 182.636 51.565 182.106 51.2041 181.535C50.8378 180.972 50.537 180.389 50.3016 179.786C50.0662 179.183 49.9339 178.593 49.9048 178.017L53.3867 177.829C53.2243 178.388 53.1592 178.923 53.1913 179.433C53.2162 179.938 53.3099 180.403 53.4725 180.828C53.6224 181.255 53.8238 181.635 54.0767 181.968C54.3222 182.295 54.5809 182.559 54.8526 182.759C55.1169 182.953 55.4224 183.161 55.769 183.382C56.1157 183.603 56.4737 183.77 56.843 183.883C57.2049 183.991 57.567 184.014 57.9292 183.952C58.2787 183.892 58.5884 183.679 58.8584 183.312C59.0527 183.047 59.1614 182.776 59.1843 182.499C59.1944 182.224 59.1517 181.943 59.056 181.658C58.9549 181.38 58.8147 181.102 58.6352 180.823C58.443 180.545 58.2417 180.273 58.0313 180.005C57.8156 179.745 57.6018 179.497 57.3899 179.262C57.178 179.027 56.9946 178.807 56.8395 178.603C56.5719 178.259 56.2887 177.898 55.9898 177.52C55.6781 177.143 55.3873 176.754 55.1174 176.352C54.842 175.957 54.6002 175.548 54.392 175.123C54.1711 174.7 54.0239 174.27 53.9505 173.831C53.8771 173.392 53.8874 172.947 53.9816 172.496C54.0704 172.052 54.2822 171.603 54.6169 171.148Z" fill="black"/>
<path d="M44.4721 151.368L46.6305 154.92L35.3795 166.812L32.9797 162.863L41.0376 154.799L30.4023 158.622L28.2439 155.07L36.5305 146.803L25.4251 150.432L23.7637 147.698L39.7434 143.587L41.9018 147.138L34.914 154.121L44.4721 151.368Z" fill="black"/>
<path d="M32.3519 120.014L33.454 124.502L31.6217 124.952C32.4779 125.305 33.1755 125.814 33.7143 126.479C34.2421 127.138 34.6157 127.914 34.8353 128.808C35.1222 129.977 35.1707 131.072 34.9807 132.095C34.7907 133.118 34.4155 134.036 33.855 134.849C33.2857 135.665 32.5555 136.36 31.6644 136.936C30.7733 137.511 29.7701 137.936 28.6548 138.21C27.5395 138.484 26.4538 138.572 25.3975 138.475C24.3412 138.377 23.3763 138.098 22.5028 137.637C21.6205 137.178 20.8583 136.539 20.2162 135.721C19.5741 134.902 19.1096 133.909 18.8227 132.74C18.6771 132.147 18.6276 131.564 18.6742 130.989C18.7186 130.406 18.8503 129.852 19.0691 129.329C19.2769 128.8 19.5696 128.31 19.9473 127.861C20.314 127.405 20.7522 127.011 21.2621 126.679L17.4404 125.506L17.0165 123.78L32.3519 120.014ZM25.7596 126.419C25.3613 126.517 24.9462 126.643 24.5145 126.795C24.0806 126.94 23.6588 127.114 23.249 127.317C22.8392 127.521 22.4612 127.76 22.1152 128.032C21.7582 128.298 21.4629 128.605 21.2294 128.954C20.9848 129.295 20.8207 129.678 20.7371 130.102C20.6535 130.526 20.6737 130.991 20.7976 131.495C20.9215 132 21.122 132.415 21.3992 132.741C21.6675 133.069 21.9892 133.328 22.3642 133.518C22.7304 133.709 23.1344 133.845 23.5762 133.924C24.0158 133.995 24.4644 134.025 24.922 134.016C25.3797 134.007 25.8352 133.97 26.2887 133.906C26.7311 133.835 27.147 133.751 27.5365 133.656C27.926 133.56 28.3377 133.44 28.7716 133.296C29.2033 133.143 29.624 132.965 30.0338 132.761C30.4437 132.557 30.8271 132.322 31.1841 132.056C31.539 131.781 31.8387 131.473 32.0833 131.131C32.319 130.792 32.4842 130.413 32.5788 129.996C32.6645 129.581 32.6455 129.121 32.5216 128.616C32.4085 128.156 32.2156 127.772 31.9428 127.463C31.6589 127.148 31.3251 126.897 30.9412 126.71C30.5552 126.513 30.1357 126.372 29.6829 126.287C29.2301 126.201 28.7727 126.153 28.3107 126.145C27.8487 126.136 27.3988 126.158 26.9608 126.209C26.5141 126.262 26.1136 126.332 25.7596 126.419Z" fill="black"/>
<path d="M17.6654 101.091L21.9615 103.706C21.5965 103.814 21.1858 103.954 20.7293 104.125C20.2729 104.297 19.8482 104.509 19.4553 104.763C19.0532 105.016 18.7193 105.32 18.4535 105.675C18.1787 106.029 18.0403 106.439 18.0384 106.903C18.0367 107.332 18.1446 107.706 18.362 108.026C18.5795 108.337 18.8656 108.602 19.2202 108.822C19.5656 109.042 19.9614 109.226 20.4074 109.374C20.8443 109.512 21.2905 109.624 21.7459 109.707C22.1922 109.782 22.625 109.834 23.0441 109.863C23.4542 109.892 23.8096 109.907 24.1103 109.908L32.0263 109.94L32.0076 114.575L16.2167 114.511L16.2239 112.734L19.9091 110.876C19.3177 110.618 18.7766 110.324 18.2857 109.994C17.7858 109.664 17.3589 109.284 17.0052 108.854C16.6423 108.425 16.3617 107.94 16.1634 107.402C15.965 106.854 15.8673 106.238 15.87 105.555C15.8715 105.199 15.905 104.803 15.9705 104.366C16.027 103.929 16.129 103.501 16.2765 103.082C16.4149 102.663 16.5987 102.277 16.828 101.922C17.0573 101.567 17.3365 101.291 17.6654 101.091Z" fill="black"/>
<path d="M36.3637 82.5693L35.9256 84.2918L32.0943 85.4334C32.6014 85.7692 33.0363 86.1667 33.3992 86.6258C33.7643 87.0761 34.053 87.568 34.2653 88.1016C34.4709 88.6242 34.5936 89.1773 34.6332 89.7611C34.6751 90.336 34.6207 90.9194 34.4702 91.5113C34.1736 92.6773 33.7009 93.6668 33.0521 94.4799C32.4033 95.2929 31.6402 95.9265 30.7629 96.3805C29.8768 96.8322 28.9053 97.1024 27.8482 97.1909C26.7912 97.2794 25.7062 97.1822 24.5932 96.8991C23.4802 96.616 22.4805 96.183 21.5942 95.6002C20.7079 95.0174 19.9879 94.317 19.4342 93.499C18.8805 92.681 18.5128 91.7599 18.3313 90.7357C18.1498 89.7114 18.2074 88.6163 18.5039 87.4503C18.7309 86.5581 19.1109 85.7848 19.6442 85.1304C20.1796 84.4672 20.8814 83.9639 21.7493 83.6203L14.2896 81.723L15.4287 77.2445L36.3637 82.5693ZM27.5858 85.1331C27.2325 85.0432 26.8371 84.9708 26.3996 84.916C25.9621 84.8612 25.5124 84.8361 25.0503 84.8408C24.5883 84.8456 24.1305 84.889 23.677 84.9712C23.2235 85.0533 22.8029 85.1909 22.4153 85.3838C22.0299 85.568 21.6983 85.8175 21.4207 86.1325C21.1365 86.4364 20.936 86.818 20.8192 87.2773C20.6911 87.7808 20.6726 88.2417 20.7638 88.6599C20.8461 89.0758 21.0081 89.4556 21.2499 89.7992C21.4828 90.1406 21.7756 90.4502 22.1281 90.728C22.4829 90.9969 22.8644 91.235 23.2725 91.4423C23.6806 91.6495 24.0999 91.8314 24.5304 91.9879C24.9542 92.1333 25.3605 92.2555 25.7491 92.3543C26.1378 92.4532 26.5574 92.5411 27.0081 92.6181C27.4522 92.684 27.903 92.7235 28.3605 92.7364C28.8181 92.7493 29.2714 92.7235 29.7204 92.659C30.1628 92.5835 30.5723 92.4525 30.9489 92.2662C31.3166 92.0775 31.6404 91.8213 31.9203 91.4975C32.1913 91.1714 32.3909 90.7567 32.5189 90.2532C32.647 89.7497 32.671 89.2855 32.5909 88.8608C32.5109 88.436 32.3544 88.0529 32.1215 87.7115C31.8819 87.3591 31.5892 87.0495 31.2432 86.7828C30.8906 86.505 30.5103 86.2625 30.1022 86.0552C29.6852 85.8457 29.2604 85.6672 28.8277 85.5195C28.3973 85.363 27.9833 85.2342 27.5858 85.1331Z" fill="black"/>
<path d="M32.3217 58.9851L34.8759 63.3176C34.5032 63.2405 34.0752 63.1698 33.5919 63.1056C33.1086 63.0413 32.6339 63.0283 32.1678 63.0665C31.6936 63.1004 31.2558 63.2109 30.8543 63.3981C30.4447 63.5808 30.1295 63.8767 29.9085 64.2857C29.7049 64.6626 29.6235 65.0433 29.6643 65.428C29.7095 65.8046 29.8364 66.1736 30.0452 66.535C30.2459 66.8921 30.5081 67.241 30.8317 67.5816C31.1517 67.9098 31.4926 68.2183 31.8546 68.5071C32.2128 68.7836 32.5699 69.0335 32.9258 69.2568C33.2737 69.4759 33.5799 69.6569 33.8445 69.7998L40.8091 73.5626L38.606 77.6403L24.713 70.1342L25.5578 68.5705L29.6838 68.6708C29.2839 68.1646 28.9454 67.6502 28.6684 67.1276C28.3833 66.6006 28.1862 66.0642 28.0771 65.5183C27.9599 64.9681 27.941 64.4088 28.0202 63.8404C28.1037 63.2639 28.3079 62.675 28.6329 62.0736C28.8018 61.7608 29.0184 61.4272 29.2825 61.0726C29.5385 60.7136 29.8304 60.3844 30.158 60.0849C30.4776 59.781 30.8221 59.5268 31.1915 59.3224C31.561 59.1179 31.9377 59.0055 32.3217 58.9851Z" fill="black"/>
<path d="M52.1187 45.6607C52.7255 46.2127 53.2216 46.8118 53.6071 47.4582C53.9925 48.1045 54.2793 48.7781 54.4673 49.479C54.6614 50.1731 54.7565 50.888 54.7526 51.6237C54.7419 52.3533 54.6405 53.0743 54.4484 53.7867C54.2624 54.4923 53.9854 55.1829 53.6173 55.8584C53.2553 56.5272 52.8106 57.1515 52.2832 57.7314C51.7557 58.3112 51.1762 58.8129 50.5445 59.2363C49.9129 59.6598 49.2515 60.0008 48.5605 60.2593C47.8755 60.5111 47.1704 60.6767 46.4451 60.7562C45.713 60.8295 44.9892 60.8057 44.2738 60.6847C43.5644 60.5569 42.8698 60.3317 42.19 60.009C41.5034 59.6801 40.8601 59.2428 40.26 58.6969C39.66 58.151 39.1672 57.5549 38.7818 56.9086C38.3896 56.2561 38.0964 55.5828 37.9023 54.8887C37.7143 54.1879 37.6256 53.4726 37.6363 52.743C37.6402 52.0073 37.7351 51.2866 37.9211 50.581C38.1133 49.8686 38.3903 49.178 38.7522 48.5092C39.1142 47.8404 39.5589 47.2161 40.0864 46.6363C40.6138 46.0564 41.1934 45.5548 41.825 45.1313C42.4628 44.7011 43.1241 44.3601 43.8091 44.1084C44.5001 43.8499 45.2117 43.6839 45.9438 43.6106C46.6691 43.5311 47.3865 43.5553 48.0958 43.683C48.8113 43.804 49.5123 44.029 50.1989 44.3578C50.8787 44.6805 51.5187 45.1148 52.1187 45.6607ZM48.9539 49.1397C48.6303 48.8453 48.2714 48.5558 47.8773 48.2712C47.4825 47.9737 47.0734 47.7124 46.6498 47.4872C46.2194 47.2559 45.7753 47.0737 45.3173 46.9405C44.8588 46.7945 44.4103 46.7253 43.9719 46.7332C43.5268 46.7349 43.0924 46.8264 42.6687 47.0077C42.2382 47.1829 41.8359 47.4762 41.4618 47.8875C41.1061 48.2785 40.8644 48.6932 40.7367 49.1316C40.609 49.5699 40.5657 50.0171 40.6066 50.4733C40.6469 50.9166 40.7584 51.363 40.9409 51.8125C41.1296 52.2552 41.3563 52.6832 41.6211 53.0965C41.8791 53.5037 42.1683 53.8901 42.4889 54.2556C42.8027 54.615 43.1146 54.9357 43.4248 55.2179C43.7349 55.5 44.0871 55.7834 44.4812 56.068C44.8686 56.3465 45.2806 56.598 45.717 56.8225C46.1535 57.047 46.601 57.2323 47.0596 57.3784C47.5175 57.5116 47.9724 57.5804 48.4243 57.5848C48.8755 57.5764 49.3133 57.488 49.7377 57.3195C50.162 57.151 50.552 56.8712 50.9077 56.4802C51.2757 56.0757 51.53 55.6539 51.6706 55.215C51.8044 54.7699 51.8511 54.3257 51.8108 53.8824C51.7766 53.4324 51.6685 52.9891 51.4865 52.5525C51.3046 52.1159 51.0782 51.6943 50.8073 51.2877C50.5426 50.8744 50.2469 50.4883 49.9202 50.1296C49.5997 49.764 49.2776 49.4341 48.9539 49.1397Z" fill="black"/>
<path d="M71.7482 32.5369C72.3548 33.512 72.7759 34.5167 73.0114 35.551C73.2469 36.5853 73.2834 37.5931 73.121 38.5743C72.9537 39.5478 72.5808 40.4668 72.0022 41.3313C71.4236 42.1957 70.6235 42.9457 69.6019 43.5812C69.0833 43.9038 68.5399 44.1345 67.9715 44.2734C67.4109 44.4075 66.8465 44.458 66.2785 44.4249C65.7134 44.3793 65.1572 44.253 64.6098 44.0461C64.0702 43.8343 63.5636 43.5376 63.09 43.1559L63.1613 47.153L61.6521 48.0919L50.2419 29.7497L54.1657 27.3088L58.2315 33.8446C58.2962 32.9134 58.5598 32.0947 59.0221 31.3884C59.4922 30.6774 60.1181 30.0787 60.8997 29.5924C61.9213 28.9569 62.9477 28.5707 63.9789 28.4338C65.01 28.2968 65.9992 28.3684 66.9464 28.6487C67.8936 28.9289 68.7791 29.4032 69.6027 30.0716C70.4264 30.74 71.1416 31.5617 71.7482 32.5369ZM67.7663 35.0139C67.5545 34.6734 67.3113 34.3256 67.0367 33.9704C66.765 33.6027 66.4686 33.2557 66.1476 32.9294C65.8266 32.6032 65.4803 32.3141 65.1089 32.0621C64.7452 31.8053 64.3654 31.6175 63.9695 31.4988C63.5688 31.3724 63.1578 31.3329 62.7365 31.3803C62.3103 31.42 61.8767 31.577 61.4355 31.8515C61.0331 32.1018 60.7262 32.4108 60.5148 32.7785C60.3063 33.1336 60.1688 33.5251 60.1022 33.9529C60.0433 34.376 60.0434 34.8161 60.1023 35.2732C60.1613 35.7303 60.2584 36.1797 60.3937 36.6215C60.529 37.0634 60.689 37.4845 60.8736 37.8848C61.0583 38.2852 61.2469 38.6402 61.4395 38.9497C61.6561 39.298 61.9003 39.656 62.172 40.0237C62.4514 40.3866 62.754 40.735 63.0799 41.0691C63.4009 41.3953 63.7433 41.6868 64.107 41.9436C64.4736 42.1879 64.8573 42.3732 65.2579 42.4997C65.6616 42.6135 66.074 42.6468 66.4954 42.5994C66.9244 42.5471 67.3634 42.3814 67.8123 42.1021C68.2457 41.8325 68.5768 41.5192 68.8055 41.1622C69.0372 40.7927 69.1873 40.4041 69.2558 39.9966C69.3195 39.5813 69.3165 39.1537 69.2469 38.714C69.1802 38.2617 69.0715 37.8195 68.9207 37.3873C68.7699 36.9551 68.5921 36.5398 68.3871 36.1413C68.1851 35.7302 67.9782 35.3545 67.7663 35.0139Z" fill="black"/>
<path d="M81.7716 29.2497C82.3497 29.2111 82.9199 29.1464 83.4824 29.0554C84.0449 28.9645 84.6014 28.8372 85.1518 28.6738C85.7285 28.5026 86.2459 28.2919 86.7041 28.0417C87.1684 27.7803 87.5421 27.4696 87.8251 27.1099C88.1142 26.7388 88.3001 26.308 88.3826 25.8176C88.4652 25.3272 88.4118 24.7631 88.2224 24.1253C88.0693 23.6097 87.8593 23.1587 87.5924 22.772C87.3254 22.3854 87.0068 22.0807 86.6364 21.8579C86.2747 21.6325 85.8682 21.4965 85.417 21.4498C84.9632 21.3944 84.4698 21.4459 83.9368 21.6041C83.4388 21.752 83.016 21.9774 82.6686 22.2802C82.3299 22.5805 82.0543 22.9333 81.8419 23.3386C81.6357 23.7326 81.4843 24.1674 81.3878 24.6429C81.3 25.1159 81.2524 25.5959 81.2449 26.083C81.2374 26.5702 81.2706 27.05 81.3443 27.5225C81.4181 27.995 81.5146 28.4322 81.634 28.8341C81.6547 28.904 81.6755 28.9739 81.6962 29.0438C81.717 29.1137 81.7421 29.1823 81.7716 29.2497ZM91.8018 23.0196C91.986 23.64 92.0503 24.2246 91.9946 24.7736C91.9364 25.3138 91.787 25.8193 91.5464 26.2901C91.3146 26.7583 91.0092 27.1865 90.6301 27.5748C90.251 27.9631 89.8283 28.3168 89.3621 28.6359C88.8933 28.9462 88.394 29.2181 87.8643 29.4514C87.3433 29.6822 86.8251 29.8741 86.3096 30.0272C85.6543 30.2218 84.9947 30.3701 84.3309 30.4721C83.6646 30.5654 82.9913 30.6036 82.3113 30.5869C82.5787 31.135 82.895 31.6401 83.2604 32.1021C83.6232 32.5553 84.0377 32.9266 84.5039 33.2161C84.9676 33.4967 85.4865 33.6754 86.0608 33.7521C86.6437 33.8262 87.2847 33.7595 87.9837 33.5519C88.4468 33.4144 88.8673 33.2135 89.2452 32.9491C89.6231 32.6848 89.9492 32.3741 90.2234 32.0169C90.4977 31.6597 90.714 31.2675 90.8723 30.8401C91.0394 30.4102 91.1424 29.9565 91.1813 29.4791L93.3049 29.6186C93.2216 30.3945 93.0017 31.1111 92.6454 31.7683C92.2953 32.4143 91.8506 32.9979 91.3113 33.5194C90.7782 34.0295 90.1768 34.4695 89.507 34.8395C88.846 35.207 88.166 35.4945 87.467 35.702C86.3136 36.0445 85.1906 36.1688 84.0978 36.0749C83.0024 35.9723 81.9971 35.6766 81.0818 35.1878C80.1665 34.6989 79.3639 34.0292 78.674 33.1787C77.9841 32.3282 77.4679 31.3263 77.1254 30.1729C76.7829 29.0195 76.6687 27.8983 76.7826 26.8091C76.8965 25.7198 77.2036 24.7207 77.7038 23.8115C78.204 22.9023 78.8863 22.1103 79.7507 21.4352C80.6126 20.7514 81.6202 20.2383 82.7735 19.8959C83.3327 19.7298 83.9167 19.5992 84.5255 19.504C85.1342 19.4088 85.7398 19.3668 86.3421 19.3781C86.9419 19.3807 87.5267 19.4448 88.0964 19.5703C88.6661 19.6959 89.1898 19.9065 89.6674 20.202C90.1511 20.4862 90.5756 20.8593 90.941 21.3213C91.3151 21.7807 91.6021 22.3468 91.8018 23.0196Z" fill="black"/>
</svg>
