<svg width="409" height="460" viewBox="0 0 409 460" fill="none" xmlns="http://www.w3.org/2000/svg">
<path d="M9 2L150.904 8.272C176.723 9.41318 202.076 15.5477 225.561 26.3363L256.15 40.3882C323.915 71.5184 365.691 140.984 361.421 215.435V215.435C360.808 226.124 359.249 236.738 356.762 247.151L320.5 399" stroke="#A4D144" stroke-width="3" stroke-dasharray="30 30"/>
<path d="M6.70389 97.0416C6.63401 96.63 6.63536 96.1861 6.73608 95.7626C6.95885 94.8153 7.57 94.0092 8.43071 93.5434L10.7465 92.2716C11.7992 91.6935 13.2515 91.7754 14.2284 92.4457L19.1909 95.9178C19.2562 95.9638 19.4736 96.0012 19.5666 95.9842L24.1615 95.1448L19.0483 87.283C18.3708 86.2301 18.2297 85.0599 18.6571 84.0752C19.0845 83.0905 20.0373 82.3764 21.2465 82.1555L23.6463 81.7171C25.4693 81.3841 27.645 82.3369 28.5788 83.883L34.6503 93.2094L39.9334 92.2443C42.1844 91.8331 45.0402 92.951 46.425 94.7813C47.0738 95.6658 47.2644 96.7883 46.9427 97.8309C46.2472 100.06 43.95 102.12 41.6991 102.531L36.4159 103.496L33.7908 114.469C33.3666 116.263 31.6852 117.882 29.8435 118.219L27.4437 118.657C26.2159 118.881 25.107 118.563 24.3779 117.77C23.6487 116.978 23.3991 115.847 23.6705 114.62L25.8867 105.42L21.2919 106.259C21.2174 106.272 21.0441 106.381 20.9978 106.448L17.462 111.492C16.7833 112.464 15.408 113.063 14.2469 112.889L11.6516 112.514C10.6861 112.363 9.84623 111.822 9.34031 110.988C8.83756 110.174 8.70959 109.194 8.97591 108.277C9.01584 108.174 9.05576 108.07 9.11429 107.963L12.0203 102.937C12.1251 102.764 12.0557 102.468 11.9219 102.357L7.5356 98.6643C7.44849 98.603 7.37679 98.5197 7.32371 98.4329C6.98703 98.0315 6.78966 97.5467 6.70389 97.0416ZM27.3108 95.1675C27.3839 95.5978 27.3421 96.0298 27.1606 96.4294C26.844 97.1624 26.182 97.6691 25.3262 97.8254L20.0245 98.794C19.2245 98.9401 18.2091 98.7205 17.5557 98.2612L12.5932 94.7891C12.4875 94.7312 12.1958 94.7074 12.0905 94.7652L9.7561 96.0403C9.5796 96.1305 9.52742 96.275 9.50292 96.3566C9.49385 96.4162 9.47253 96.5165 9.52879 96.622L13.7562 100.171C14.9609 101.166 15.2754 103.018 14.4709 104.38L11.682 109.191C11.6856 109.325 11.7201 109.416 11.7482 109.468C11.7981 109.536 11.8979 109.672 12.0935 109.695L14.6888 110.069C14.8254 110.083 15.0917 109.957 15.1534 109.869L18.6738 104.847C19.0994 104.19 19.9969 103.602 20.8154 103.453L26.1172 102.484C26.9543 102.331 27.7402 102.554 28.276 103.112C28.8119 103.67 29.0075 104.483 28.806 105.33L26.425 115.255C26.3611 115.556 26.3928 115.743 26.4396 115.793C26.4863 115.842 26.6664 115.886 26.9641 115.832L29.3638 115.393C30.0707 115.264 30.8806 114.499 31.0331 113.815L33.7439 102.557C33.9576 101.669 34.752 100.926 35.645 100.763L41.2258 99.7433C42.4536 99.519 43.8696 98.2572 44.2371 97.0327C44.2861 96.8695 44.2544 96.6824 44.1514 96.5276C43.4091 95.5444 41.6223 94.8485 40.4131 95.0694L34.8323 96.0889C33.9579 96.2486 32.9479 95.8351 32.4547 95.0765L26.199 85.4559C25.8274 84.8486 24.8142 84.4164 24.1259 84.5422L21.7261 84.9806C21.4285 85.0349 21.2738 85.1404 21.2461 85.2033C21.2184 85.2662 21.2502 85.4533 21.4094 85.7135L26.9129 94.1793C27.1189 94.4888 27.2536 94.8307 27.3108 95.1675Z" fill="#A4D144"/>
<path d="M302.583 39.9152C302.945 39.732 303.356 39.6109 303.777 39.5945C304.716 39.5552 305.631 39.9422 306.301 40.6718L308.118 42.6299C308.944 43.5199 309.269 44.9906 308.917 46.1495L307.069 52.0552C307.044 52.133 307.07 52.36 307.111 52.4481L309.157 56.7977L315.031 49.5307C315.82 48.5648 316.865 48.1012 317.895 48.2557C318.926 48.4102 319.85 49.1631 320.389 50.3078L321.457 52.5795C322.269 54.3052 321.986 56.7373 320.811 58.0949L313.844 66.7215L316.196 71.7227C317.198 73.8535 316.95 77.0092 315.636 78.8949C314.995 79.7859 314.008 80.2856 312.953 80.2525C310.695 80.1742 308.153 78.4519 307.151 76.3211L304.799 71.3199L293.907 71.7299C292.127 71.802 290.163 70.5721 289.343 68.8287L288.275 66.557C287.728 65.3948 287.717 64.2014 288.251 63.2557C288.784 62.31 289.763 61.7491 290.974 61.6813L300.112 61.3526L298.066 57.0029C298.033 56.9325 297.884 56.7897 297.81 56.7618L292.161 54.6281C291.072 54.2197 290.138 53.0137 289.979 51.8081L289.61 49.1171C289.484 48.1126 289.754 47.126 290.386 46.3916C291.003 45.6656 291.875 45.2677 292.798 45.2804C292.905 45.2916 293.012 45.3027 293.128 45.3315L298.586 46.8425C298.776 46.8992 299.031 46.7483 299.096 46.5843L301.308 41.1922C301.341 41.0884 301.399 40.9939 301.464 40.9171C301.743 40.4707 302.138 40.1401 302.583 39.9152ZM310.004 59.944C309.626 60.1355 309.214 60.2131 308.794 60.1424C308.027 60.0289 307.375 59.5087 306.994 58.6986L304.634 53.6798C304.278 52.9225 304.201 51.8495 304.446 51.0714L306.295 45.1657C306.319 45.0443 306.261 44.7468 306.178 44.6578L304.352 42.6822C304.22 42.5311 304.072 42.5189 303.989 42.517C303.932 42.5244 303.833 42.5308 303.751 42.616L301.629 47.8099C301.039 49.2856 299.41 50.1101 297.925 49.6839L292.698 48.2305C292.574 48.2712 292.5 48.3304 292.459 48.373C292.41 48.4416 292.311 48.5786 292.345 48.7797L292.714 51.4707C292.739 51.6106 292.929 51.8415 293.028 51.8786L298.652 54.0031C299.378 54.2463 300.171 54.9788 300.535 55.7536L302.895 60.7725C303.268 61.5649 303.278 62.4099 302.909 63.0982C302.54 63.7864 301.841 64.2057 301 64.2385L291.146 64.6029C290.85 64.6221 290.685 64.7054 290.652 64.7656C290.619 64.8258 290.628 65.0176 290.761 65.2994L291.829 67.5711C292.144 68.2403 293.076 68.8367 293.752 68.8L304.932 68.3966C305.814 68.3647 306.721 68.9518 307.119 69.7971L309.603 75.0801C310.15 76.2424 311.71 77.3061 312.946 77.3347C313.111 77.3385 313.275 77.2552 313.39 77.1098C314.097 76.0985 314.248 74.125 313.71 72.9803L311.226 67.6973C310.837 66.8697 310.941 65.7486 311.508 65.0475L318.697 56.1561C319.157 55.6181 319.278 54.4887 318.972 53.8371L317.903 51.5654C317.771 51.2836 317.63 51.1585 317.564 51.1482C317.498 51.138 317.334 51.2213 317.137 51.4519L310.81 59.2746C310.58 59.5654 310.301 59.7941 310.004 59.944Z" fill="#A4D144"/>
<path d="M393.261 414.754C393.57 415.021 393.845 415.361 394.032 415.752C394.451 416.625 394.486 417.65 394.118 418.582L393.14 421.104C392.696 422.25 391.535 423.159 390.372 423.301L384.421 423.971C384.343 423.979 384.153 424.096 384.093 424.172L381.105 427.888L389.902 430.472C391.074 430.822 391.91 431.622 392.196 432.66C392.482 433.698 392.199 434.882 391.413 435.86L389.852 437.801C388.667 439.276 386.412 440.004 384.737 439.448L374.296 436.388L370.861 440.662C369.397 442.483 366.52 443.54 364.324 443.069C363.278 442.828 362.434 442.098 362.031 441.086C361.175 438.917 361.649 435.806 363.113 433.986L366.548 429.712L361.727 419.572C360.935 417.918 361.212 415.555 362.41 414.066L363.97 412.124C364.769 411.131 365.814 410.632 366.864 410.749C367.914 410.867 368.808 411.564 369.364 412.682L373.395 421.194L376.383 417.477C376.431 417.417 376.496 417.218 376.49 417.136L376.053 410.917C375.966 409.719 376.645 408.341 377.64 407.697L379.855 406.246C380.687 405.715 381.665 405.566 382.57 405.864C383.461 406.15 384.168 406.813 384.535 407.691C384.569 407.797 384.603 407.903 384.625 408.024L385.532 413.809C385.56 414.011 385.797 414.191 385.968 414.186L391.616 414.071C391.721 414.059 391.827 414.075 391.922 414.106C392.429 414.187 392.881 414.425 393.261 414.754ZM378.685 429.979C378.361 429.699 378.125 429.342 378.015 428.915C377.8 428.143 377.991 427.313 378.547 426.62L381.995 422.332C382.515 421.684 383.427 421.173 384.212 421.086L390.163 420.417C390.28 420.39 390.518 420.213 390.562 420.098L391.552 417.562C391.631 417.375 391.581 417.229 391.549 417.151C391.519 417.099 391.473 417.008 391.364 416.965L385.927 417.084C384.388 417.13 382.995 415.926 382.762 414.347L381.9 408.805C381.813 408.705 381.731 408.659 381.677 408.637C381.596 408.619 381.435 408.582 381.272 408.696L379.056 410.147C378.944 410.228 378.818 410.502 378.826 410.611L379.261 416.804C379.344 417.59 379.025 418.64 378.493 419.302L375.045 423.591C374.501 424.268 373.762 424.624 373.005 424.556C372.249 424.489 371.593 423.999 371.22 423.217L366.865 414.041C366.726 413.768 366.586 413.647 366.519 413.64C366.453 413.634 366.288 413.721 366.094 413.961L364.534 415.903C364.074 416.474 363.931 417.601 364.24 418.225L369.174 428.641C369.563 429.462 369.418 430.561 368.837 431.284L365.208 435.798C364.41 436.791 364.113 438.703 364.594 439.885C364.658 440.042 364.799 440.164 364.974 440.213C366.153 440.467 367.951 439.803 368.737 438.825L372.366 434.31C372.934 433.603 373.963 433.243 374.812 433.492L385.576 436.654C386.238 436.869 387.281 436.521 387.728 435.964L389.289 434.023C389.482 433.782 389.535 433.598 389.517 433.531C389.499 433.465 389.358 433.343 389.074 433.251L379.604 430.468C379.254 430.369 378.938 430.198 378.685 429.979Z" fill="#A4D144"/>
</svg>
